<?xml version="1.0" standalone="no"?>
<!DOCTYPE svg PUBLIC "-//W3C//DTD SVG 20010904//EN"
 "http://www.w3.org/TR/2001/REC-SVG-20010904/DTD/svg10.dtd">
<svg version="1.0" xmlns="http://www.w3.org/2000/svg"
 width="500.000000pt" height="500.000000pt" viewBox="0 0 500.000000 500.000000"
 preserveAspectRatio="xMidYMid meet">
<metadata>
Created by potrace 1.14, written by Peter Selinger 2001-2017
</metadata>
<g transform="translate(0.000000,500.000000) scale(0.100000,-0.100000)"
fill="#000000" stroke="none">
<path d="M2450 4814 c-94 -16 -128 -32 -317 -147 -51 -31 -93 -54 -93 -51 0 2
-6 0 -12 -6 -20 -17 -148 -97 -187 -117 -20 -10 -37 -21 -39 -25 -2 -5 -11 -8
-20 -8 -8 0 -23 -6 -31 -14 -9 -7 -97 -59 -196 -116 -99 -56 -181 -106 -183
-111 -2 -5 -8 -9 -13 -9 -5 0 -54 -27 -110 -60 -55 -33 -105 -60 -110 -60 -5
0 -9 -4 -9 -10 0 -5 -4 -10 -10 -10 -5 0 -70 -36 -145 -80 -75 -44 -140 -80
-145 -80 -6 0 -10 -4 -10 -9 0 -5 -10 -13 -22 -17 -13 -3 -30 -12 -38 -19 -8
-7 -40 -26 -70 -42 -126 -68 -220 -144 -220 -179 0 -8 -4 -14 -9 -14 -4 0 -18
-26 -30 -59 -21 -58 -21 -61 -21 -1104 l0 -1046 30 -65 c41 -88 81 -128 200
-201 36 -22 75 -46 85 -53 11 -6 40 -22 65 -35 25 -12 51 -28 58 -35 7 -6 18
-12 23 -12 6 0 35 -16 65 -35 30 -19 57 -35 59 -35 3 0 22 -10 43 -23 20 -13
66 -40 102 -59 86 -47 130 -72 285 -160 72 -40 147 -81 168 -91 20 -10 37 -22
37 -27 0 -6 9 -10 20 -10 11 0 20 -4 20 -9 0 -5 9 -13 20 -16 23 -7 219 -117
262 -146 15 -11 34 -19 43 -19 8 0 15 -4 15 -10 0 -5 5 -10 10 -10 6 0 29 -12
53 -27 58 -38 107 -64 107 -58 0 3 9 -4 19 -14 11 -11 59 -39 107 -63 85 -42
91 -43 183 -43 98 0 111 4 216 56 79 40 120 64 139 81 11 10 25 18 32 18 7 0
19 6 26 13 7 7 45 28 83 47 39 19 76 40 83 47 7 7 24 16 38 19 13 3 24 10 24
15 0 5 7 9 15 9 8 0 15 3 15 8 0 4 20 15 45 25 25 11 45 23 45 28 0 5 3 8 8 7
4 -1 24 8 44 21 20 12 40 22 44 21 4 -1 10 3 13 8 3 5 22 18 41 29 19 11 91
50 160 88 69 38 127 72 130 76 3 4 17 10 32 14 15 4 29 13 32 22 3 8 10 12 15
9 5 -3 14 1 21 9 7 8 18 15 25 15 7 0 18 7 25 15 7 8 21 15 31 15 11 0 19 4
19 8 0 8 51 36 59 32 2 -1 7 2 10 7 3 5 33 24 66 43 133 74 151 84 194 109 26
14 60 33 76 41 17 8 32 18 35 21 3 3 30 20 61 37 69 39 132 108 168 182 l26
55 0 1065 c0 1042 0 1066 -20 1108 -11 23 -23 42 -27 42 -5 0 -8 7 -8 15 0 22
-87 105 -142 135 -28 15 -209 120 -294 170 -23 14 -74 44 -114 68 -39 23 -76
42 -81 42 -5 0 -9 5 -9 11 0 5 -4 8 -9 4 -5 -3 -12 -1 -15 4 -5 8 -28 22 -156
94 -19 11 -46 28 -59 38 -13 10 -27 16 -32 13 -5 -3 -9 0 -9 6 0 6 -8 14 -17
17 -10 4 -45 24 -78 45 -33 21 -66 38 -72 38 -7 0 -13 4 -13 8 0 5 -22 19 -50
32 -27 13 -50 26 -50 30 0 3 -16 12 -35 20 -19 8 -35 16 -35 19 0 4 -14 13
-32 20 -18 8 -51 27 -74 43 -23 15 -47 28 -53 28 -6 0 -11 5 -11 10 0 6 -6 10
-12 10 -7 0 -40 17 -73 38 -33 20 -81 49 -107 62 -27 14 -48 28 -48 32 0 5 -4
8 -9 8 -5 0 -42 19 -83 43 -124 73 -214 96 -308 81z m-1400 -3755 c0 -4 8 -9
18 -11 13 -3 10 -8 -15 -21 -18 -9 -39 -17 -47 -17 -19 0 -33 23 -18 28 7 2
12 10 12 18 0 9 9 13 25 12 14 -1 25 -6 25 -9z"/>
</g>
</svg>
